<?xml version="1.0" encoding="utf-8"?>
<!-- Generator: Adobe Illustrator 19.1.0, SVG Export Plug-In . SVG Version: 6.00 Build 0)  -->
<svg version="1.1" id="图层_1" xmlns="http://www.w3.org/2000/svg" xmlns:xlink="http://www.w3.org/1999/xlink" x="0px" y="0px"
	 viewBox="-252 385.9 90 70" style="enable-background:new -252 385.9 90 70;" xml:space="preserve">
<style type="text/css">
	.st0{fill:#999999;}
</style>
<g>
	<path class="st0" d="M-170.3,444.9h-73.3c-2.2,0-4.2-0.8-5.8-2.4c-1.6-1.6-2.4-3.6-2.4-5.8c0-1.1,0.2-2.2,0.7-3.3
		c0.4-1,1-1.9,1.8-2.6c0.7-0.7,1.6-1.3,2.6-1.7c0.3-0.1,0.7-0.3,1.1-0.4c1.3-6.7,4.3-12.7,8.9-18c4.5-5.2,10.1-9,16.5-11.3
		c0.1-3.4,1.4-6.4,3.9-8.8c2.6-2.6,5.8-3.9,9.5-3.9s6.9,1.3,9.5,3.9c2.5,2.4,3.8,5.4,4,8.9c6.4,2.3,11.9,6.1,16.4,11.3
		c4.6,5.3,7.5,11.3,8.9,18c1.4,0.4,2.7,1.1,3.7,2.1c1.6,1.6,2.4,3.6,2.4,5.8c0,2.3-0.8,4.3-2.4,5.8
		C-166.1,444-168.1,444.9-170.3,444.9L-170.3,444.9z M-243.1,434.4c-0.7,0-1,0.1-1.3,0.2c-0.3,0.1-0.6,0.3-0.7,0.5
		c-0.2,0.2-0.4,0.4-0.5,0.7c-0.1,0.3-0.2,0.6-0.2,0.9c0,0.6,0.2,1.1,0.7,1.5c0.4,0.5,0.9,0.7,1.5,0.7h73.3c0.6,0,1.1-0.2,1.6-0.7
		s0.7-0.9,0.7-1.6c0-0.6-0.2-1.1-0.7-1.6s-0.9-0.7-1.6-0.7h-2.6l-0.8-2.6c-0.9-6.5-3.5-12.2-7.9-17.2c-4.3-5-9.6-8.4-15.9-10.2
		l-2.2-0.6l0.1-2.9c0.1-0.4,0.1-0.6,0.1-0.8c0-2.1-0.7-3.8-2.2-5.2c-3-2.9-7.7-2.9-10.6,0c-1.4,1.4-2.1,3.2-2.1,5.3
		c0,0.3,0,0.7,0.1,1.2l0.2,2.5l-2.4,0.7c-6.2,1.8-11.6,5.3-15.9,10.2c-4.3,5-6.9,10.8-7.9,17.2l-0.4,2.6L-243.1,434.4L-243.1,434.4z
		 M-248.6,449.2h83.8v6h-83.8V449.2L-248.6,449.2z M-228,428.1l-5.5-2.3c6.3-15.3,18.8-18.1,19.4-18.2l1.2,5.9
		C-213.4,413.6-223,415.8-228,428.1L-228,428.1z"/>
</g>
</svg>
