<svg xmlns="http://www.w3.org/2000/svg" xmlns:xlink="http://www.w3.org/1999/xlink" preserveAspectRatio="xMidYMid" width="26" height="26" viewBox="0 0 26 26">
  <defs>
    <style>
      .cls-1 {
        fill: #ea5504;
        fill-rule: evenodd;
      }
    </style>
  </defs>
  <path d="M20.922,10.156 C19.696,10.156 18.586,9.704 17.708,8.980 L10.027,12.501 C10.107,12.859 10.156,13.228 10.156,13.609 C10.156,13.781 10.122,13.943 10.106,14.111 L17.654,17.064 C18.539,16.314 19.670,15.844 20.922,15.844 C23.726,15.844 26.000,18.117 26.000,20.922 C26.000,23.726 23.726,26.000 20.922,26.000 C18.117,26.000 15.844,23.726 15.844,20.922 C15.844,20.475 15.920,20.050 16.028,19.637 L9.106,16.670 C8.178,17.889 6.728,18.688 5.078,18.688 C2.274,18.688 0.000,16.414 0.000,13.609 C0.000,10.805 2.274,8.531 5.078,8.531 C6.525,8.531 7.823,9.144 8.748,10.115 L16.189,6.880 C15.975,6.318 15.844,5.715 15.844,5.078 C15.844,2.273 18.117,-0.000 20.922,-0.000 C23.726,-0.000 26.000,2.273 26.000,5.078 C26.000,7.883 23.726,10.156 20.922,10.156 ZM20.922,24.375 C22.829,24.375 24.375,22.829 24.375,20.922 C24.375,19.015 22.829,17.469 20.922,17.469 C19.015,17.469 17.469,19.015 17.469,20.922 C17.469,22.829 19.015,24.375 20.922,24.375 ZM5.078,10.156 C3.171,10.156 1.625,11.702 1.625,13.609 C1.625,15.516 3.171,17.063 5.078,17.063 C6.985,17.063 8.531,15.516 8.531,13.609 C8.531,11.702 6.985,10.156 5.078,10.156 ZM20.922,1.625 C19.015,1.625 17.469,3.171 17.469,5.078 C17.469,6.985 19.015,8.531 20.922,8.531 C22.829,8.531 24.375,6.985 24.375,5.078 C24.375,3.171 22.829,1.625 20.922,1.625 Z" class="cls-1"/>
</svg>
