<?xml version="1.0" encoding="utf-8"?>
<!-- Generator: Adobe Illustrator 19.1.0, SVG Export Plug-In . SVG Version: 6.00 Build 0)  -->
<svg version="1.1" id="图层_1" xmlns="http://www.w3.org/2000/svg" xmlns:xlink="http://www.w3.org/1999/xlink" x="0px" y="0px"
	 viewBox="-252 385.9 90 70" style="enable-background:new -252 385.9 90 70;" xml:space="preserve">
<style type="text/css">
	.st0{fill:#EA5504;}
</style>
<path class="st0" d="M-162.7,408l-15.5,22.4c-0.5,0.8-1.4,1.2-2.3,1.2h-45.7v6.2h38.8h0.1c0.1,0,0.2,0,0.2,0c4.9,0,8.9,4.1,8.9,9.1
	s-4,9.1-8.9,9.1c-4.9-0.1-8.9-4.2-8.9-9.2c0-1.2,0.2-2.4,0.7-3.5h-23.1c0.4,1.1,0.7,2.3,0.7,3.5c0,5-4,9.1-8.9,9.1
	c-4.9,0-8.9-4.1-8.9-9.1c0-3,1.5-5.7,3.7-7.3v-7.9h-0.5c-1.6,0-2.8-1.2-2.8-2.8v-22.3c0-0.1,0-0.1,0-0.2s0-0.1,0-0.2v-11.3
	l-14.6-2.8c-1.5-0.3-2.5-1.7-2.2-3.3c0.3-1.5,1.8-2.5,3.3-2.2l16.8,3.2c1.3,0.3,2.3,1.4,2.3,2.7v11.2h64.5c1,0,2,0.6,2.5,1.5
	C-162.1,406.1-162.2,407.2-162.7,408z M-187.1,450.3c1.8,0,3.3-1.6,3.3-3.5s-1.5-3.5-3.3-3.5c-1.8,0-3.3,1.6-3.3,3.5
	C-190.4,448.8-188.9,450.3-187.1,450.3z M-226.6,450.3c1.8,0,3.3-1.6,3.3-3.5s-1.5-3.5-3.3-3.5c-1.8,0-3.3,1.6-3.3,3.5
	C-229.9,448.8-228.5,450.3-226.6,450.3z M-229.6,409.3v16.8h47.6l11.7-16.8C-170.3,409.3-229.6,409.3-229.6,409.3z"/>
</svg>
