<?xml version="1.0" encoding="utf-8"?>
<!-- Generator: Adobe Illustrator 19.1.0, SVG Export Plug-In . SVG Version: 6.00 Build 0)  -->
<svg version="1.1" id="图层_1" xmlns="http://www.w3.org/2000/svg" xmlns:xlink="http://www.w3.org/1999/xlink" x="0px" y="0px"
	 viewBox="0 0 96 96" style="enable-background:new 0 0 96 96;" xml:space="preserve">
<style type="text/css">
	.st0{fill:#272636;}
</style>
<g>
	<path class="st0" d="M93.7,11H76.2V4h-3.6v7H51V4h-3.7v7H23.9V4h-3.7v7H2.3C1.1,11,0,12.2,0,13.5v75.5c0,1.4,1.1,2.6,2.3,2.6h91.3
		c1.3,0,2.3-1.2,2.3-2.6V13.5C96,12.2,94.9,11,93.7,11L93.7,11z M91.3,86.6H4.6V16.1h15.5v2h3.7v-2h23.5v2H51v-2h21.5v2h3.6v-2h15.2
		V86.6L91.3,86.6z M15.3,26.7h14.2V37H15.3V26.7L15.3,26.7z M41,26.7h14.1V37H41V26.7L41,26.7z M66.5,26.7h14.1V37H66.5V26.7
		L66.5,26.7z M15.3,45.7h14.2V56H15.3V45.7L15.3,45.7z M41,45.7h14.1V56H41V45.7L41,45.7z M66.5,45.7h14.1V56H66.5V45.7L66.5,45.7z
		 M15.3,65h14.2v10.3H15.3V65L15.3,65z M41,65h14.1v10.3H41V65L41,65z M66.5,65h14.1v10.3H66.5V65L66.5,65z M66.5,65"/>
</g>
</svg>
