<?xml version="1.0" encoding="utf-8"?>
<!-- Generator: Adobe Illustrator 19.1.0, SVG Export Plug-In . SVG Version: 6.00 Build 0)  -->
<svg version="1.1" id="图层_1" xmlns="http://www.w3.org/2000/svg" xmlns:xlink="http://www.w3.org/1999/xlink" x="0px" y="0px"
	 viewBox="0 0 40 40" style="enable-background:new 0 0 40 40;" xml:space="preserve">
<style type="text/css">
	.st0{fill:#EA5504;}
</style>
<g>
	<path class="st0" d="M38.6,11.6l-7-7.5c-0.2-0.3-0.6-0.4-0.9-0.4H20.2l0-2.6c0-0.6-0.6-1.2-1.2-1.2c-0.7,0-1.2,0.5-1.2,1.2l0,2.6
		H3.9C3.2,3.7,2.7,4.3,2.7,5v15c0,0.7,0.6,1.2,1.2,1.2h13.8v17.6c0,0.6,0.6,1.2,1.2,1.2c0.7,0,1.2-0.5,1.2-1.2V21.2h10.4
		c0.3,0,0.7-0.1,0.9-0.4l7-7.5C39,12.9,39,12.1,38.6,11.6L38.6,11.6z M30.1,18.7H5.2V6.2h24.9l5.8,6.2L30.1,18.7L30.1,18.7z
		 M30.1,18.7"/>
</g>
</svg>
