<?xml version="1.0" encoding="utf-8"?>
<!-- Generator: Adobe Illustrator 19.1.0, SVG Export Plug-In . SVG Version: 6.00 Build 0)  -->
<svg version="1.1" id="图层_1" xmlns="http://www.w3.org/2000/svg" xmlns:xlink="http://www.w3.org/1999/xlink" x="0px" y="0px"
	 viewBox="0 0 90 70" style="enable-background:new 0 0 90 70;" xml:space="preserve">
<style type="text/css">
	.st0{fill:#999999;}
</style>
<path class="st0" d="M89.3,22.1L73.8,44.5c-0.5,0.8-1.4,1.2-2.3,1.2H25.8l0,6.2h38.8c0,0,0.1,0,0.1,0c0.1,0,0.2,0,0.2,0
	c4.9,0,8.9,4.1,8.9,9.1c0,5-4,9.1-8.9,9.1C60,70,56,65.9,56,60.9c0-1.2,0.2-2.4,0.7-3.5H33.6c0.4,1.1,0.7,2.3,0.7,3.5
	c0,5-4,9.1-8.9,9.1c-4.9,0-8.9-4.1-8.9-9.1c0-3,1.5-5.7,3.7-7.3l0-7.9h-0.5c-1.6,0-2.8-1.2-2.8-2.8V20.6c0-0.1,0-0.1,0-0.2
	c0-0.1,0-0.1,0-0.2V8.9L2.3,6.1C0.8,5.8-0.2,4.4,0.1,2.8c0.3-1.5,1.8-2.5,3.3-2.2l16.8,3.2c1.3,0.3,2.3,1.4,2.3,2.7v11.2h64.5
	c1,0,2,0.6,2.5,1.5C89.9,20.2,89.8,21.3,89.3,22.1z M64.9,64.4c1.8,0,3.3-1.6,3.3-3.5c0-1.9-1.5-3.5-3.3-3.5c-1.8,0-3.3,1.6-3.3,3.5
	C61.6,62.9,63.1,64.4,64.9,64.4z M25.4,64.4c1.8,0,3.3-1.6,3.3-3.5c0-1.9-1.5-3.5-3.3-3.5c-1.8,0-3.3,1.6-3.3,3.5
	C22.1,62.9,23.5,64.4,25.4,64.4z M22.4,23.4v16.8H70l11.7-16.8H22.4z"/>
</svg>
