<?xml version="1.0" encoding="utf-8"?>
<!-- Generator: Adobe Illustrator 19.1.0, SVG Export Plug-In . SVG Version: 6.00 Build 0)  -->
<svg version="1.1" id="图层_1" xmlns="http://www.w3.org/2000/svg" xmlns:xlink="http://www.w3.org/1999/xlink" x="0px" y="0px"
	 viewBox="0 0 90 70" style="enable-background:new 0 0 90 70;" xml:space="preserve">
<style type="text/css">
	.st0{fill:#EA5504;}
</style>
<path class="st0" d="M83.1,39.8h-4v27.7c0,1.4-1.1,2.5-2.5,2.5H14.3c-1.4,0-2.5-1.1-2.5-2.5V39.8h-4c-1.4,0-2.5-1.1-2.5-2.5V19.9
	c0-1.4,1.1-2.5,2.5-2.5h21.6c-2.7-2.8-4.3-6.3-4.3-9.4c0-2.3,0.8-4.3,2.3-5.7C28.9,0.8,30.9,0,33.2,0c3.4,0,7.2,1.7,10.1,4.5
	c0.8,0.8,1.5,1.7,2.2,2.6c0.6-0.9,1.3-1.8,2.2-2.6C50.6,1.7,54.3,0,57.7,0c2.3,0,4.3,0.8,5.8,2.2c1.5,1.5,2.3,3.4,2.3,5.7
	c0,3.2-1.6,6.6-4.3,9.4h21.6c1.4,0,2.5,1.1,2.5,2.5v17.4C85.6,38.7,84.5,39.8,83.1,39.8z M61,65h13.1V39.8H61V65z M35,65h21V39.8H35
	V65z M35,34.8h21V22.4H35V34.8z M16.8,65h13.1V39.8H16.8V65z M10.3,34.8h4h15.6V22.4H10.3V34.8z M39.8,8.1c-2-1.9-4.5-3.1-6.6-3.1
	c-0.7,0-1.6,0.1-2.3,0.8c-0.5,0.5-0.8,1.2-0.8,2.2c0,2,1.2,4.4,3.2,6.3c2,1.9,4.5,3.1,6.6,3.1c0.7,0,1.6-0.1,2.3-0.8
	c0.5-0.5,0.8-1.2,0.8-2.2C43,12.4,41.7,10,39.8,8.1z M60,5.8C59.4,5.1,58.4,5,57.7,5c-2.1,0-4.6,1.2-6.6,3.1c-2,1.9-3.2,4.3-3.2,6.3
	c0,0.9,0.3,1.7,0.8,2.2c0.7,0.6,1.6,0.8,2.3,0.8c2.1,0,4.6-1.2,6.6-3.1c2-1.9,3.2-4.3,3.2-6.3C60.8,7,60.6,6.3,60,5.8z M80.6,22.4
	H61v12.4h15.6h4V22.4z"/>
</svg>
