<?xml version="1.0" encoding="utf-8"?>
<!-- Generator: Adobe Illustrator 19.1.0, SVG Export Plug-In . SVG Version: 6.00 Build 0)  -->
<svg version="1.1" id="图层_1" xmlns="http://www.w3.org/2000/svg" xmlns:xlink="http://www.w3.org/1999/xlink" x="0px" y="0px"
	 viewBox="0 0 90 70" style="enable-background:new 0 0 90 70;" xml:space="preserve">
<style type="text/css">
	.st0{fill:#EA5504;}
</style>
<g>
	<path class="st0" d="M81.7,59H8.4c-2.2,0-4.2-0.8-5.8-2.4C1,55,0.2,53,0.2,50.8c0-1.1,0.2-2.2,0.7-3.3c0.4-1,1-1.9,1.8-2.6
		c0.7-0.7,1.6-1.3,2.6-1.7c0.3-0.1,0.7-0.3,1.1-0.4c1.3-6.7,4.3-12.7,8.9-18c4.5-5.2,10.1-9,16.5-11.3c0.1-3.4,1.4-6.4,3.9-8.8
		c2.6-2.6,5.8-3.9,9.5-3.9c3.7,0,6.9,1.3,9.5,3.9c2.5,2.4,3.8,5.4,4,8.9c6.4,2.3,11.9,6.1,16.4,11.3c4.6,5.3,7.5,11.3,8.9,18
		c1.4,0.4,2.7,1.1,3.7,2.1c1.6,1.6,2.4,3.6,2.4,5.8c0,2.3-0.8,4.3-2.4,5.8C85.9,58.1,83.9,59,81.7,59L81.7,59z M8.9,48.5
		c-0.7,0-1,0.1-1.3,0.2c-0.3,0.1-0.6,0.3-0.7,0.5c-0.2,0.2-0.4,0.4-0.5,0.7c-0.1,0.3-0.2,0.6-0.2,0.9c0,0.6,0.2,1.1,0.7,1.5
		C7.3,52.8,7.8,53,8.4,53h73.3c0.6,0,1.1-0.2,1.6-0.7c0.5-0.5,0.7-0.9,0.7-1.6c0-0.6-0.2-1.1-0.7-1.6c-0.5-0.5-0.9-0.7-1.6-0.7h-2.6
		l-0.8-2.6c-0.9-6.5-3.5-12.2-7.9-17.2c-4.3-5-9.6-8.4-15.9-10.2l-2.2-0.6l0.1-2.9c0.1-0.4,0.1-0.6,0.1-0.8c0-2.1-0.7-3.8-2.2-5.2
		c-3-2.9-7.7-2.9-10.6,0c-1.4,1.4-2.1,3.2-2.1,5.3c0,0.3,0,0.7,0.1,1.2l0.2,2.5l-2.4,0.7c-6.2,1.8-11.6,5.3-15.9,10.2
		c-4.3,5-6.9,10.8-7.9,17.2l-0.4,2.6H8.9L8.9,48.5z M3.4,63.3h83.8v6H3.4V63.3L3.4,63.3z M24,42.2l-5.5-2.3
		c6.3-15.3,18.8-18.1,19.4-18.2l1.2,5.9C38.6,27.7,29,29.9,24,42.2L24,42.2z M24,42.2"/>
</g>
</svg>
