<svg xmlns="http://www.w3.org/2000/svg" xmlns:xlink="http://www.w3.org/1999/xlink" preserveAspectRatio="xMidYMid" width="22" height="22" viewBox="0 0 22 22">
  <defs>
    <style>
      .cls-1 {
        fill: #ea5504;
        fill-rule: evenodd;
      }
    </style>
  </defs>
  <path d="M11.000,-0.000 C4.925,-0.000 0.000,4.925 0.000,11.000 C0.000,17.075 4.925,22.000 11.000,22.000 C17.075,22.000 22.000,17.075 22.000,11.000 C22.000,4.925 17.075,-0.000 11.000,-0.000 ZM15.125,5.500 C15.884,5.500 16.500,6.424 16.500,7.562 C16.500,8.701 15.884,9.625 15.125,9.625 C14.366,9.625 13.750,8.701 13.750,7.562 C13.750,6.424 14.366,5.500 15.125,5.500 ZM7.562,6.704 C8.844,6.704 9.755,7.184 9.755,7.935 C9.755,8.095 9.836,8.859 9.750,9.001 C9.431,8.473 8.573,8.095 7.562,8.095 C6.552,8.095 5.694,8.473 5.375,9.001 C5.290,8.859 5.371,8.095 5.371,7.935 C5.370,7.184 6.281,6.704 7.562,6.704 ZM10.750,17.875 C8.188,17.875 5.940,16.495 4.672,14.417 C6.185,15.599 8.852,15.831 11.661,15.276 C14.674,14.681 17.013,13.310 17.858,11.483 C17.392,15.091 14.388,17.875 10.750,17.875 Z" class="cls-1"/>
</svg>
