<?xml version="1.0" encoding="utf-8"?>
<!-- Generator: Adobe Illustrator 19.1.0, SVG Export Plug-In . SVG Version: 6.00 Build 0)  -->
<svg version="1.1" id="图层_1" xmlns="http://www.w3.org/2000/svg" xmlns:xlink="http://www.w3.org/1999/xlink" x="0px" y="0px"
	 viewBox="-252 385.9 90 70" style="enable-background:new -252 385.9 90 70;" xml:space="preserve">
<style type="text/css">
	.st0{fill:#EA5504;stroke:#EA5504;stroke-miterlimit:10;}
</style>
<g>
	<path class="st0" d="M-207.9,423.6c-10.3,0-18.6-8.3-18.6-18.6c0-10.3,8.3-18.6,18.6-18.6s18.6,8.3,18.6,18.6
		C-189.3,415.3-197.6,423.6-207.9,423.6L-207.9,423.6z M-207.9,390.4c-8,0-14.6,6.5-14.6,14.6c0,8,6.5,14.6,14.6,14.6
		c8,0,14.6-6.5,14.6-14.6C-193.3,397-199.8,390.4-207.9,390.4L-207.9,390.4z M-176.3,455.4h-4c0-14.2-12-26.7-26.7-26.7
		c-14.8,0-26.8,12.5-26.8,26.7h-4c0-16.2,13.8-30.8,30.8-30.8C-190.1,424.6-176.3,439.2-176.3,455.4L-176.3,455.4z"/>
</g>
</svg>
