<?xml version="1.0" encoding="utf-8"?>
<!-- Generator: Adobe Illustrator 19.1.0, SVG Export Plug-In . SVG Version: 6.00 Build 0)  -->
<svg version="1.1" id="图层_1" xmlns="http://www.w3.org/2000/svg" xmlns:xlink="http://www.w3.org/1999/xlink" x="0px" y="0px"
	 viewBox="0 0 48 48" style="enable-background:new 0 0 48 48;" xml:space="preserve">
<style type="text/css">
	.st0{fill:#DE5511;}
</style>
<g>
	<path class="st0" d="M8.1,20.7H10v1.4l0,0c0.3-0.5,0.7-0.9,1.2-1.2c0.5-0.3,1.1-0.4,1.7-0.4c1,0,1.8,0.3,2.4,0.8
		c0.6,0.5,0.9,1.3,0.9,2.4V30h-2.1v-5.9c0-0.7-0.2-1.3-0.5-1.6c-0.3-0.3-0.7-0.5-1.4-0.5c-0.3,0-0.7,0.1-0.9,0.2
		c-0.3,0.1-0.5,0.3-0.7,0.5c-0.2,0.2-0.3,0.5-0.5,0.8c-0.1,0.3-0.2,0.6-0.2,1V30H8.1V20.7L8.1,20.7z M20,25.9c0,0.4,0.1,0.7,0.2,1
		c0.1,0.3,0.3,0.6,0.5,0.9c0.2,0.3,0.5,0.5,0.8,0.6c0.3,0.2,0.7,0.2,1.1,0.2c0.6,0,1.1-0.1,1.4-0.4c0.4-0.3,0.6-0.6,0.8-1.2h1.9
		c-0.1,0.5-0.3,1-0.6,1.4c-0.3,0.4-0.6,0.7-1,1c-0.4,0.3-0.8,0.5-1.3,0.6c-0.5,0.1-0.9,0.2-1.4,0.2c-0.7,0-1.4-0.1-1.9-0.4
		c-0.6-0.2-1-0.6-1.4-1c-0.4-0.4-0.7-0.9-0.9-1.5c-0.2-0.6-0.3-1.3-0.3-2c0-0.7,0.1-1.3,0.3-1.9c0.2-0.6,0.5-1.1,0.9-1.6
		c0.4-0.5,0.9-0.8,1.4-1.1c0.6-0.3,1.2-0.4,1.9-0.4c0.7,0,1.4,0.2,2,0.5c0.6,0.3,1.1,0.7,1.4,1.2c0.4,0.5,0.7,1.1,0.8,1.7
		c0.2,0.7,0.2,1.3,0.1,2L20,25.9L20,25.9z M24.8,24.6c0-0.3-0.1-0.6-0.2-0.9c-0.1-0.3-0.3-0.6-0.5-0.8c-0.2-0.2-0.4-0.4-0.7-0.5
		c-0.3-0.1-0.6-0.2-0.9-0.2c-0.4,0-0.7,0.1-1,0.2c-0.3,0.1-0.5,0.3-0.8,0.5c-0.2,0.2-0.4,0.5-0.5,0.8c-0.1,0.3-0.2,0.6-0.2,1H24.8
		L24.8,24.6z M27.6,20.7h2.2l1.8,7h0l1.7-7h2.1l1.7,7h0l1.9-7h2.1l-2.9,9.3h-2.1l-1.7-6.9h0l-1.7,6.9h-2.2L27.6,20.7L27.6,20.7z
		 M24,48c-4.6,0-9.2-1.3-13.3-4l-7.4,2.4H2.4l-0.9-0.9c-0.9-1.1-0.4-2.6,0.1-4.4C1.8,40.6,2,40,2,39.7C2,38.8,2.9,38,3.9,38
		c1,0,1.8,0.8,1.8,1.8c0,0.6-0.2,1.3-0.4,2.1l6.1-2l0.8,0.6c8.1,5.9,19.1,5,26.2-2.1c3.8-3.8,5.9-8.9,5.9-14.3
		c0-5.4-2.1-10.5-5.9-14.3C34.5,5.8,29.4,3.7,24,3.7c-5.4,0-10.5,2.1-14.3,5.9c-5.8,5.8-7.5,14.5-4.4,22.1c0.4,0.9-0.1,2-1,2.4
		c-0.9,0.4-2-0.1-2.4-1C-1.9,24.1,0.2,13.9,7,7c4.5-4.5,10.5-7,17-7c6.4,0,12.4,2.5,17,7s7,10.6,7,17c0,6.4-2.5,12.4-7,17
		C36.3,45.6,30.2,48,24,48L24,48z M24,48"/>
</g>
</svg>
