<?xml version="1.0" encoding="utf-8"?>
<!-- Generator: Adobe Illustrator 19.1.0, SVG Export Plug-In . SVG Version: 6.00 Build 0)  -->
<svg version="1.1" id="图层_1" xmlns="http://www.w3.org/2000/svg" xmlns:xlink="http://www.w3.org/1999/xlink" x="0px" y="0px"
	 viewBox="0 0 48 48" style="enable-background:new 0 0 48 48;" xml:space="preserve">
<style type="text/css">
	.st0{fill:#DE5511;}
</style>
<g>
	<path class="st0" d="M3.3,4.7v7.8c4-7.3,11.8-12.2,20.8-12.2c13.1,0,23.7,10.6,23.7,23.7c0,13.1-10.6,23.7-23.7,23.7
		C12,47.7,2,38.7,0.6,27h3C5,37,13.6,44.8,24.1,44.8c11.5,0,20.8-9.3,20.8-20.8c0-11.5-9.3-20.8-20.8-20.8
		c-8.3,0-15.4,4.9-18.7,11.9h8.4c0.8,0,1.5,0.7,1.5,1.5c0,0.8-0.7,1.5-1.5,1.5H1.1c0-0.1,0-0.1,0-0.2c-0.2-0.1-0.4-0.2-0.5-0.4
		c-0.1-0.1-0.1-0.2-0.2-0.2c0-0.1-0.1-0.1-0.1-0.2c-0.1-0.2-0.1-0.3-0.1-0.5V4.7c0-0.8,0.7-1.5,1.5-1.5C2.7,3.2,3.3,3.9,3.3,4.7
		L3.3,4.7L3.3,4.7z M23.3,32.1c-0.1,0.2-0.2,0.4-0.4,0.6c-0.6,0.6-1.5,0.5-2.1-0.1l-8.3-7.7c-0.6-0.6-0.5-1.5,0.1-2.1
		c0.6-0.6,1.5-0.5,2.1,0.1l6.8,6.4L34,15.8c0.4-0.7,1.3-1,2-0.5c0.7,0.4,1,1.3,0.5,2L23.3,32.1L23.3,32.1z M0.4,16.6h1.5v1.5H0.4
		V16.6L0.4,16.6z M0.4,16.6"/>
</g>
</svg>
