<?xml version="1.0" encoding="utf-8"?>
<!-- Generator: Adobe Illustrator 19.1.0, SVG Export Plug-In . SVG Version: 6.00 Build 0)  -->
<svg version="1.1" id="图层_1" xmlns="http://www.w3.org/2000/svg" xmlns:xlink="http://www.w3.org/1999/xlink" x="0px" y="0px"
	 viewBox="0 0 59.7 48" style="enable-background:new 0 0 59.7 48;" xml:space="preserve">
<style type="text/css">
	.st0{fill:#DE5511;}
</style>
<g>
	<path class="st0" d="M48.6,5c0-2.8-2.7-5-6.1-5H6.1C2.7,0,0,3.1,0,6.8v24c0,3.8,2.5,6.8,5.6,6.8c3.2,0,3.7,0,3.7-1.8
		c0-1.3,0-1.7-1.9-1.8c-3.2-0.2-4.1-2.4-3.8-6.8v-9.7h4.5c0.7,0,1.2-0.6,1.2-1.3v-3.5c0-0.7-0.6-1.3-1.2-1.3H3.6v-1
		C3.3,4.8,4.3,2.5,9.7,2.6h29.2c5.7-0.2,6,1.7,6.1,4.2c0,1.8,0.5,2,1.8,2C48.8,8.8,48.6,7.8,48.6,5L48.6,5z"/>
	<path class="st0" d="M53.7,10.3H17.2c-3.3,0-6.1,3.1-6.1,6.8v24c0,3.8,2.7,6.8,6.1,6.8h36.4c3.3,0,6.1-3.1,6.1-6.8v-24
		C59.7,13.4,57,10.3,53.7,10.3z M56.9,39.8c0,3.3-2.4,6.1-5.4,6.1H19.3c-3,0-5.4-2.7-5.4-6.1V18.6c0-3.3,2.4-6.1,5.4-6.1h32.2
		c3,0,5.4,2.7,5.4,6.1V39.8z"/>
	<g>
		<path class="st0" d="M53.8,21.8c0,0.9-0.6,1.6-1.4,1.6h-7.5c-0.8,0-1.4-0.7-1.4-1.6v-4.5c0-0.9,0.6-1.6,1.4-1.6h7.5
			c0.8,0,1.4,0.7,1.4,1.6V21.8L53.8,21.8z"/>
		<path class="st0" d="M24.6,41.1c0,0.8-0.4,1.5-0.9,1.5h-6.1c-0.5,0-0.9-0.7-0.9-1.5v-0.2c0-0.8,0.4-1.5,0.9-1.5h6.1
			c0.5,0,0.9,0.7,0.9,1.5V41.1L24.6,41.1z"/>
		<path class="st0" d="M34.4,41.1c0,0.8-0.4,1.5-0.9,1.5h-6.1c-0.5,0-0.9-0.7-0.9-1.5v-0.2c0-0.8,0.4-1.5,0.9-1.5h6.1
			c0.5,0,0.9,0.7,0.9,1.5V41.1L34.4,41.1z"/>
		<path class="st0" d="M44.3,41.1c0,0.8-0.4,1.5-0.9,1.5h-6.1c-0.5,0-0.9-0.7-0.9-1.5v-0.2c0-0.8,0.4-1.5,0.9-1.5h6.1
			c0.5,0,0.9,0.7,0.9,1.5V41.1L44.3,41.1z"/>
		<path class="st0" d="M54.1,41.1c0,0.8-0.4,1.5-0.9,1.5h-6.1c-0.5,0-0.9-0.7-0.9-1.5v-0.2c0-0.8,0.4-1.5,0.9-1.5h6.1
			c0.5,0,0.9,0.7,0.9,1.5V41.1L54.1,41.1z"/>
	</g>
	<path class="st0" d="M55,41"/>
</g>
</svg>
