<?xml version="1.0" encoding="utf-8"?>
<!-- Generator: Adobe Illustrator 19.1.0, SVG Export Plug-In . SVG Version: 6.00 Build 0)  -->
<svg version="1.1" id="图层_1" xmlns="http://www.w3.org/2000/svg" xmlns:xlink="http://www.w3.org/1999/xlink" x="0px" y="0px"
	 viewBox="0 0 55 48" style="enable-background:new 0 0 55 48;" xml:space="preserve">
<style type="text/css">
	.st0{fill:#DE5511;stroke:#DE5511;stroke-width:2;stroke-miterlimit:10;}
</style>
<g>
	<path class="st0" d="M32.9,1.1c-7.2,0-13,5.9-13,13c0,5,2.8,9.3,6.9,11.5C18.2,28.3,12,36.2,12,45.6c0,0.7,0.6,1.2,1.2,1.2
		s1.2-0.6,1.2-1.2c0-10.2,8.3-18.4,18.3-18.4c0.1,0,0.3,0,0.4,0c7-0.2,12.7-5.9,12.7-13C45.9,6.9,40.1,1.1,32.9,1.1L32.9,1.1
		L32.9,1.1z M32.9,24.7c-5.8,0-10.5-4.7-10.5-10.5c0-5.8,4.7-10.5,10.5-10.5c5.8,0,10.5,4.7,10.5,10.5
		C43.4,19.9,38.7,24.7,32.9,24.7L32.9,24.7L32.9,24.7z M47.7,30.8c-0.5-0.5-1.3-0.5-1.8,0c-0.5,0.5-0.5,1.3,0,1.8
		c3.5,3.5,5.4,8.1,5.4,13c0,0.7,0.6,1.2,1.2,1.2c0.7,0,1.2-0.6,1.2-1.2C53.8,40,51.6,34.8,47.7,30.8L47.7,30.8L47.7,30.8z M19.7,25
		L19.7,25L19.7,25c0-0.7-0.6-1.3-1.2-1.3c-4.5,0-8.2-3.9-8.2-8.8s3.7-8.8,8.2-8.8c0.7,0,1.2-0.6,1.2-1.2c0-0.7-0.6-1.2-1.2-1.2
		c-5.9,0-10.7,5-10.7,11.2c0,4.1,2.1,7.7,5.3,9.7c-6.7,2.4-11.6,9.1-11.6,17c0,0.7,0.6,1.2,1.2,1.2c0.7,0,1.2-0.6,1.2-1.2
		c0-8.5,6.5-15.4,14.5-15.4C19.2,26.2,19.7,25.7,19.7,25L19.7,25L19.7,25z M19.7,25"/>
</g>
</svg>
