<?xml version="1.0" encoding="utf-8"?>
<!-- Generator: Adobe Illustrator 19.1.0, SVG Export Plug-In . SVG Version: 6.00 Build 0)  -->
<svg version="1.1" id="图层_1" xmlns="http://www.w3.org/2000/svg" xmlns:xlink="http://www.w3.org/1999/xlink" x="0px" y="0px"
	 viewBox="0 0 48 48" style="enable-background:new 0 0 48 48;" xml:space="preserve">
<style type="text/css">
	.st0{fill:#EA5504;}
</style>
<g>
	<path class="st0" d="M47.1,18h-1.9c0,0,0,0,0-0.1c0-3.7-3-6.8-6.7-6.8H9.7C6,11.2,3,14.2,3,18c0,0,0,0,0,0.1H1.1
		C0.5,18,0,18.5,0,19.1c0,0.6,0.5,1.1,1.1,1.1h3l3.7,11.6c0.1,0.2,2,6.1,6.8,6.1c1.4,0,2.2-0.8,2.8-1.3c0.5-0.5,0.7-0.7,1.2-0.7h5.9
		c0.1,0,0.1,0,0.2,0c0.1,0,0.1,0,0.2,0h4.6c0.5,0,0.7,0.2,1.2,0.7c0.6,0.5,1.3,1.3,2.8,1.3c4.8,0,6.7-5.8,6.8-6.1l3.7-11.6h3.1
		c0.6,0,1.1-0.5,1.1-1.1C48.2,18.5,47.7,18,47.1,18L47.1,18z M5.2,18c0-2.5,2-4.5,4.5-4.5h28.9c2.5,0,4.5,2,4.5,4.5c0,0,0,0,0,0.1
		L5.2,18C5.2,18,5.2,18,5.2,18L5.2,18z M38.2,31.2c0,0-1.5,4.5-4.7,4.5c-0.5,0-0.7-0.2-1.2-0.7c-0.6-0.5-1.3-1.3-2.8-1.3H25
		c-0.1,0-0.1,0-0.2,0c-0.1,0-0.1,0-0.2,0h-5.9c-1.4,0-2.2,0.8-2.8,1.3c-0.5,0.5-0.7,0.7-1.2,0.7c-3.2,0-4.7-4.4-4.7-4.5L6.5,20.3
		h35.2L38.2,31.2L38.2,31.2z M33.7,31.9c0.3,0,0.5-0.1,0.8-0.3c1.5-1.3,2.7-6,3-6.9c0.2-0.6-0.2-1.2-0.8-1.4
		c-0.6-0.2-1.2,0.2-1.4,0.8c-0.6,2.3-1.7,5.2-2.3,5.8c-0.5,0.4-0.5,1.1-0.1,1.6C33.1,31.8,33.4,31.9,33.7,31.9L33.7,31.9z
		 M33.7,31.9"/>
</g>
</svg>
