<?xml version="1.0" encoding="utf-8"?>
<!-- Generator: Adobe Illustrator 19.1.0, SVG Export Plug-In . SVG Version: 6.00 Build 0)  -->
<svg version="1.1" id="图层_1" xmlns="http://www.w3.org/2000/svg" xmlns:xlink="http://www.w3.org/1999/xlink" x="0px" y="0px"
	 viewBox="0 0 48 48" style="enable-background:new 0 0 48 48;" xml:space="preserve">
<style type="text/css">
	.st0{fill:#863F94;}
</style>
<path class="st0" d="M33.1,18.1c-1.5,0-2.9-0.4-4.1-1l-9.4,9.5V45h3.7c0.8,0,1.5,0.7,1.5,1.5S24.1,48,23.3,48H12.9
	c-0.8,0-1.5-0.7-1.5-1.5S12,45,12.9,45h3.7V26.6L0.5,10.3C0.1,9.8,0,9.2,0.2,8.6C0.4,8.1,1,7.7,1.6,7.7h22.7C24.9,3.4,28.6,0,33.1,0
	C38,0,42,4.1,42,9.1S38,18.1,33.1,18.1z M18.1,23.9L31,10.7H5.2L18.1,23.9z M33.1,3c-2.8,0-5.2,2-5.8,4.7h7.3c0.6,0,1.1,0.4,1.4,0.9
	c0.2,0.6,0.1,1.2-0.3,1.6l-4.5,4.6c0.6,0.2,1.2,0.3,1.9,0.3c3.3,0,5.9-2.7,5.9-6.1C39,5.7,36.3,3,33.1,3z"/>
</svg>
