<?xml version="1.0" encoding="utf-8"?>
<!-- Generator: Adobe Illustrator 19.1.0, SVG Export Plug-In . SVG Version: 6.00 Build 0)  -->
<svg version="1.1" id="图层_1" xmlns="http://www.w3.org/2000/svg" xmlns:xlink="http://www.w3.org/1999/xlink" x="0px" y="0px"
	 viewBox="0 0 48 48" style="enable-background:new 0 0 48 48;" xml:space="preserve">
<style type="text/css">
	.st0{fill:#EA5504;}
</style>
<g>
	<path class="st0" d="M32.7,26.8h-10v-9.9c0-0.8-0.6-1.4-1.4-1.4c-0.8,0-1.4,0.6-1.4,1.4v11.3c0,0,0,0,0,0v0c0,0.4,0.2,0.7,0.5,1
		c0.3,0.2,0.6,0.4,1,0.4h11.4c0.7-0.2,1.4-0.8,1.4-1.4C34.2,27.4,33.4,26.8,32.7,26.8L32.7,26.8z M34.5,10.1l1.7-1.7
		c0.6-0.6,0.6-1.5,0-2c-0.6-0.6-1.5-0.6-2,0l-2,2c0,0,0,0-0.1,0.1c-2.8-1.6-5.9-2.6-9.3-2.8c0,0,0,0,0-0.1l0,0V2.8l0,0c0,0,0,0,0,0
		h2.9c0.2,0,0.5-0.1,0.7-0.2C26.7,2.4,27,2,27,1.6c0,0,0-0.1,0-0.1c0-0.1,0-0.2,0-0.3c0-0.1,0-0.2-0.1-0.3c0-0.1-0.1-0.2-0.2-0.3
		c0,0-0.1-0.1-0.1-0.1c0,0-0.1-0.1-0.1-0.1c-0.1-0.1-0.2-0.1-0.3-0.2c-0.1,0-0.2-0.1-0.2-0.1c-0.1,0-0.1,0-0.2,0c0,0-0.1,0-0.1,0
		h-8.5l0,0c-0.7,0-1.3,0.5-1.4,1.1c0,0.1,0,0.2,0,0.3c0,0,0,0.1,0,0.1c0,0.1,0,0.1,0,0.2c0,0.1,0,0.1,0.1,0.2
		c0.1,0.1,0.1,0.3,0.2,0.4c0,0,0.1,0.1,0.1,0.1c0,0,0.1,0.1,0.1,0.1c0.1,0.1,0.2,0.2,0.4,0.2c0.1,0,0.1,0,0.2,0.1c0.1,0,0.2,0,0.3,0
		l0,0h2.9c0,0,0,0,0,0l0,0v2.8l0,0c0,0,0,0,0,0.1c-3.4,0.2-6.6,1.2-9.3,2.8c0,0,0,0-0.1-0.1l-2-2c-0.6-0.6-1.5-0.6-2,0
		C6,7,6,7.9,6.5,8.5l1.7,1.7C3.2,14,0,20,0,26.8C0,38.5,9.6,48,21.4,48c11.8,0,21.4-9.5,21.4-21.2C42.7,20,39.5,14,34.5,10.1
		L34.5,10.1z M21.4,45.2C11.1,45.2,2.8,37,2.8,26.8c0-10.1,8.3-18.4,18.5-18.4c10.2,0,18.5,8.2,18.5,18.4
		C39.9,37,31.6,45.2,21.4,45.2L21.4,45.2z M21.4,45.2"/>
</g>
</svg>
