<svg xmlns="http://www.w3.org/2000/svg" xmlns:xlink="http://www.w3.org/1999/xlink" preserveAspectRatio="xMidYMid" width="18" height="25" viewBox="0 0 18 25">
  <defs>
    <style>
      .cls-1 {
        fill: #ea5504;
        fill-rule: evenodd;
      }
    </style>
  </defs>
  <path d="M16.500,25.000 L1.500,25.000 C0.672,25.000 0.000,24.300 0.000,23.438 L0.000,12.500 C0.000,11.637 0.672,10.938 1.500,10.938 L1.500,7.813 C1.500,3.498 4.858,0.000 9.000,0.000 C13.142,0.000 16.500,3.498 16.500,7.813 L16.500,10.938 C17.328,10.938 18.000,11.637 18.000,12.500 L18.000,23.438 C18.000,24.300 17.328,25.000 16.500,25.000 ZM13.500,7.813 C13.500,5.224 11.485,3.125 9.000,3.125 C6.515,3.125 4.500,5.224 4.500,7.813 L4.500,10.938 L13.500,10.938 L13.500,7.813 ZM15.000,14.063 L3.000,14.063 L3.000,21.875 L15.000,21.875 L15.000,14.063 Z" class="cls-1"/>
</svg>
