<svg xmlns="http://www.w3.org/2000/svg" xmlns:xlink="http://www.w3.org/1999/xlink" preserveAspectRatio="xMidYMid" width="25" height="23" viewBox="0 0 25 23">
  <defs>
    <style>
      .cls-1 {
        fill: #ea5504;
        fill-rule: evenodd;
      }
    </style>
  </defs>
  <path d="M23.437,13.143 C23.342,13.143 23.258,13.103 23.167,13.086 C22.537,15.025 20.808,16.429 18.750,16.429 L18.750,4.929 L17.187,4.929 C17.187,4.021 16.488,3.286 15.625,3.286 L9.375,3.286 C8.512,3.286 7.812,4.021 7.812,4.929 L6.250,4.929 L6.250,14.786 L6.250,16.429 L6.250,18.072 C6.250,18.979 6.950,19.714 7.812,19.714 C7.812,18.807 8.512,18.072 9.375,18.072 L10.937,18.072 C11.800,18.072 12.500,18.807 12.500,19.714 L12.500,21.357 C12.500,22.265 11.800,23.000 10.937,23.000 L9.375,23.000 C8.512,23.000 7.812,22.265 7.812,21.357 C6.087,21.357 4.687,19.886 4.687,18.072 L4.687,16.138 C3.349,15.633 2.294,14.506 1.833,13.086 C1.742,13.103 1.658,13.143 1.562,13.143 C0.700,13.143 -0.000,12.407 -0.000,11.500 C-0.000,10.593 0.700,9.857 1.562,9.857 C1.655,9.857 1.735,9.896 1.823,9.913 C2.287,8.498 3.344,7.375 4.687,6.873 L4.687,4.929 C4.687,2.207 6.786,0.000 9.375,0.000 L15.625,0.000 C18.214,0.000 20.312,2.207 20.312,4.929 L20.312,6.873 C21.656,7.375 22.713,8.498 23.177,9.913 C23.265,9.896 23.345,9.857 23.437,9.857 C24.300,9.857 25.000,10.593 25.000,11.500 C25.000,12.407 24.300,13.143 23.437,13.143 ZM4.687,9.857 L3.125,9.857 L3.125,13.143 L4.687,13.143 L4.687,9.857 ZM21.875,9.857 L20.312,9.857 L20.312,13.143 L21.875,13.143 L21.875,9.857 Z" class="cls-1"/>
</svg>
